# AST/ASF file generated using VICON BodyLanguage
# -----------------------------------------------
:version 1.10
:name VICON
:units
  mass 1.0
  length 0.45
  angle deg
:documentation
   .ast/.asf automatically generated from VICON data using
   VICON BodyBuilder and BodyLanguage model FoxedUp or BRILLIANT.MOD
:root
   order TX TY TZ RX RY RZ
   axis XYZ
   position 0 0 0  
   orientation 0 0 0 
:bonedata
  begin
     id 1 
     name lhipjoint
     direction 0.578396 -0.714046 0.394458 
     length 2.21935 
     axis 0 0 0  XYZ
  end
  begin
     id 2 
     name lfemur
     direction 0.34202 -0.939693 0  
     length 6.39105  
     axis 0 0 20  XYZ
    dof rx ry rz
    limits (-160.0 20.0)
           (-70.0 70.0)
           (-60.0 70.0)
  end
  begin
     id 3 
     name ltibia
     direction 0.34202 -0.939693 0   
     length 6.99037   
     axis 0 0 20   XYZ
    dof rx
    limits (-10.0 170.0)
  end
  begin
     id 4 
     name lfoot
     direction 0.0582372 -0.160005 0.985397   
     length 2.06111   
     axis -90 7.62852e-016 20   XYZ
    dof rx rz
    limits (-45.0 90.0)
           (-70.0 20.0)
  end
  begin
     id 5 
     name ltoes
     direction 1.53556e-011 -4.21875e-011 1   
     length 1.04074   
     axis -90 7.62852e-016 20   XYZ
    dof rx
    limits (-90.0 20.0)
  end
  begin
     id 6 
     name rhipjoint
     direction -0.558179 -0.726269 0.40121   
     length 2.182  
     axis 0 0 0  XYZ 
  end
  begin
     id 7 
     name rfemur
     direction -0.34202 -0.939693 0   
     length 6.51172   
     axis 0 0 -20   XYZ
    dof rx ry rz
    limits (-160.0 20.0)
           (-70.0 70.0)
           (-70.0 60.0)
  end
  begin
     id 8 
     name rtibia
     direction -0.34202 -0.939693 0   
     length 7.02607   
     axis 0 0 -20   XYZ
    dof rx
    limits (-10.0 170.0)
 end
 begin
     id 9 
     name rfoot
     direction -0.0788856 -0.216737 0.973038   
     length 1.96734  
     axis -90 -7.62852e-016 -20   XYZ
    dof rx rz
    limits (-45.0 90.0)
           (-20.0 70.0)
  end
  begin
     id 10 
     name rtoes
     direction -1.53567e-011 -4.21783e-011 1   
     length 0.990825   
     axis -90 -7.62852e-016 -20   XYZ
    dof rx
    limits (-90.0 20.0)
  end
  begin
     id 11 
     name lowerback
     direction 0.00668177 0.999323 -0.0361741   
     length 1.7655   
     axis 0 0 0   XYZ
    dof rx ry rz
    limits (-20.0 45.0)
           (-30.0 30.0)
           (-30.0 30.0)
  end
  begin
     id 12 
     name upperback
     direction -0.00222086 0.99851 0.0545167   
     length 1.74912   
     axis 0 0 0   XYZ
    dof rx ry rz
    limits (-20.0 45.0)
           (-30.0 30.0)
           (-30.0 30.0)
  end
  begin
     id 13 
     name thorax
     direction -0.00733971 0.997496 0.0703443   
     length 1.75715   
     axis 0 0 0   XYZ
    dof rx ry rz
    limits (-20.0 45.0)
           (-30.0 30.0)
           (-30.0 30.0)
  end
  begin
     id 14 
     name lowerneck
     direction 0.0279797 0.994795 0.0979765   
     length 1.46939   
     axis 0 0 0   XYZ
    dof rx ry rz
    limits (-20.0 45.0)
           (-30.0 30.0)
           (-30.0 30.0)
  end
  begin
     id 15 
     name upperneck
     direction 0.00339187 0.976776 -0.214238   
     length 1.48018   
     axis 0 0 0   XYZ
    dof rx ry rz
    limits (-20.0 45.0)
           (-30.0 30.0)
           (-30.0 30.0)
  end
  begin
     id 16
     name head
     direction -0.00263506 0.996603 -0.0823096  
     length 1.4976  
     axis 0 0 0   XYZ
    dof rx ry rz
    limits (-20.0 45.0)
           (-30.0 30.0)
           (-30.0 30.0)
  end
  begin
     id 17 
     name lclavicle
     direction 0.894044 0.44508 -0.0508781  
     length 3.03024  
     axis 0 0 0   XYZ
    dof ry rz
    limits (-20.0 10.0)
           (0.0 20.0)
  end
  begin
     id 18 
     name lhumerus
     direction 1 -4.48961e-011 -2.39475e-018   
     length 4.4661   
     axis 180 -30 -90   XYZ
    dof rx ry rz
    limits (-60.0 90.0)
           (-90.0 90.0)
           (-90.0 90.0)
  end
  begin
     id 19
     name lradius
     direction 1 -4.48961e-011 9.29328e-028   
     length 3.41414   
     axis 180 -30 -90   XYZ
    dof rx
    limits (-10.0 170.0)
  end
  begin
     id 20
     name lwrist
     direction 1 -4.48985e-011 1.53461e-026   
     length 1.70707   
     axis -1.09697e-014 90 90   XYZ
    dof ry
    limits (-180.0 0.0)
 end
  begin
     id 21 
     name lhand
     direction 1 -4.48966e-011 3.06923e-026   
     length 0.328298   
     axis -1.95843e-014 90 90   XYZ
    dof rx rz
    limits (-90.0 90.0)
           (-45.0 45.0)
  end
  begin
     id 22 
     name lfingers
     direction 1 -4.48893e-011 6.13845e-026   
     length 0.264682   
     axis -3.91686e-014 90 90   XYZ
    dof rx
    limits (0.0 90.0)
  end
  begin
     id 23
     name lthumb
     direction 0.707107 -6.34876e-011 0.707107   
     length 0.380032   
     axis -90 45 2.85299e-015   XYZ
    dof rx rz
    limits (-45.0 45.0)
           (-45.0 45.0)
  end
  begin
     id 24 
     name rclavicle
     direction -0.936955 0.347862 -0.0332887   
     length 3.26927  
     axis 0 0 0   XYZ 
    dof ry rz
    limits (-10.0 20.0)
           (-20.0 0.0)
  end
  begin
     id 25 
     name rhumerus
     direction -1 -4.4896e-011 1.78637e-018  
     length 4.40431   
     axis 180 30 90   XYZ
    dof rx ry rz
    limits (-90.0 60.0)
           (-90.0 90.0)
           (-90.0 90.0)
  end
  begin
     id 26 
     name rradius
     direction -1 -4.48955e-011 9.34036e-027   
     length 3.04688   
     axis 180 30 90   XYZ
    dof rx
    limits (-10.0 170.0)
  end
  begin
     id 27 
     name rwrist
     direction -1 -4.49011e-011 1.53461e-026   
     length 1.52344   
     axis -1.09697e-014 -90 -90   XYZ
    dof ry
    limits (-180.0 0.0)
  end
  begin
     id 28
     name rhand
     direction -1 -4.48834e-011 3.06923e-026   
     length 0.500489   
     axis -1.95843e-014 -90 -90   XYZ
    dof rx rz
    limits (-90.0 90.0)
           (-45.0 45.0)
  end
  begin
     id 29
     name rfingers
     direction -1 -4.48967e-011 6.13845e-026   
     length 0.403507   
     axis -3.91686e-014 -90 -90   XYZ
    dof rx
    limits (0.0 90.0)
  end
  begin
     id 30
     name rthumb
     direction -0.707107 -6.34826e-011 0.707107   
     length 0.579358   
     axis -90 -45 -2.85299e-015   XYZ
    dof rx rz
    limits (-45.0 45.0)
           (-45.0 45.0)
  end
:hierarchy
  begin
    root lhipjoint rhipjoint lowerback
    lhipjoint lfemur
    lfemur ltibia
    ltibia lfoot
    lfoot ltoes
    rhipjoint rfemur
    rfemur rtibia
    rtibia rfoot
    rfoot rtoes
    lowerback upperback
    upperback thorax
    thorax lowerneck lclavicle rclavicle
    lowerneck upperneck
    upperneck head
    lclavicle lhumerus
    lhumerus lradius
    lradius lwrist
    lwrist lhand lthumb
    lhand lfingers
    rclavicle rhumerus
    rhumerus rradius
    rradius rwrist
    rwrist rhand rthumb
    rhand rfingers
  end

#!OML:ASF H:\IndianDance\Patient Classification 1\Patient 1\Session 1\dancer.ASF
:FULLY-SPECIFIED
:DEGREES
63
root 10.675 13.5084 0.932051 47.3543 -85.3091 -45.0755
lowerback 6.7948 1.37877 0.548894
upperback -4.87193 1.89686 0.294604
thorax -8.96162 0.883383 -0.267057
lowerneck -20.1242 -0.950388 0.890475
upperneck 29.1896 -2.60412 1.37374
head 13.1694 -1.01716 -0.100053
rclavicle 7.1314e-015 -4.77083e-015
rhumerus -11.707 36.5072 -10.795
rradius 42.4658
rwrist -11.0745
rhand -8.22421 15.0774
rfingers 7.12502
rthumb 17.6931 -14.1376
lclavicle 7.1314e-015 -4.77083e-015
lhumerus -3.99898 -34.0811 -1.37601
lradius 36.8782
lwrist 10.0648
lhand -2.76341 9.78731
lfingers 7.12502
lthumb 22.941 38.4424
rfemur -35.9903 -36.3513 21.0072
rtibia 73.7907
rfoot -32.3887 -10.4994
rtoes -1.02062
lfemur -34.2624 40.2481 -9.30846
ltibia 72.5175
lfoot -28.4437 2.82166
ltoes -1.91251
64
root 10.6581 13.4799 0.943074 46.9713 -85.3801 -44.6865
lowerback 6.76162 1.37104 0.483374
upperback -4.92863 1.87561 0.262339
thorax -9.00502 0.875081 -0.261325
lowerneck -20.18 -0.857784 1.0662
upperneck 29.1619 -2.47757 1.22159
head 13.1642 -0.961661 -0.167755
rclavicle -2.48729e-014 -3.97569e-016
rhumerus -11.8888 36.6029 -10.6857
rradius 42.8608
rwrist -11.3162
rhand -8.16635 15.0826
rfingers 7.12502
rthumb 17.7488 -14.1274
lclavicle -2.48729e-014 -3.97569e-016
lhumerus -4.1498 -34.2219 -1.46095
lradius 36.9623
lwrist 10.023
lhand -3.0181 9.76408
lfingers 7.12502
lthumb 22.6966 38.4493
rfemur -36.1886 -36.7691 20.8261
rtibia 74.2937
rfoot -32.5087 -10.2756
rtoes -1.37115
lfemur -34.3625 40.6678 -9.31931
ltibia 72.9391
lfoot -28.6538 2.48994
ltoes -1.92428
65
root 10.6416 13.451 0.954539 46.8705 -85.4389 -44.581
lowerback 6.73115 1.36583 0.458702
upperback -4.98156 1.86262 0.235589
thorax -9.04475 0.868501 -0.273861
lowerneck -20.227 -0.756135 1.25069
upperneck 29.1129 -2.33505 1.05605
head 13.1484 -0.900055 -0.23915
rclavicle 3.42904e-015 7.95139e-016
rhumerus -12.0616 36.715 -10.554
rradius 43.2544
rwrist -11.5769
rhand -8.1587 15.1146
rfingers 7.12502
rthumb 17.7561 -14.0947
lclavicle 3.42904e-015 7.95139e-016
lhumerus -4.2944 -34.3987 -1.55445
lradius 37.0603
lwrist 9.95631
lhand -3.29884 9.69083
lfingers 7.12502
lthumb 22.4271 38.4088
rfemur -36.3893 -37.2064 20.6731
rtibia 74.7919
rfoot -32.6243 -10.0379
rtoes -1.6396
lfemur -34.4675 41.1056 -9.30013
ltibia 73.376
lfoot -28.8583 2.15508
ltoes -1.9105
66
root 10.6254 13.4216 0.966459 46.9876 -85.4845 -44.699
lowerback 6.70912 1.36191 0.471567
upperback -5.02967 1.85596 0.214117
thorax -9.08317 0.86286 -0.302916
lowerneck -20.265 -0.644558 1.44034
upperneck 29.0455 -2.17648 0.883669
head 13.1236 -0.831825 -0.31107
rclavicle 3.47873e-015 7.95139e-016
rhumerus -12.2188 36.828 -10.4033
rradius 43.6355
rwrist -11.8704
rhand -8.18121 15.1667
rfingers 7.12502
rthumb 17.7345 -14.0445
lclavicle 3.47873e-015 7.95139e-016
lhumerus -4.43482 -34.6234 -1.65508
lradius 37.1771
lwrist 9.88139
lhand -3.58945 9.56566
lfingers 7.12502
lthumb 22.1482 38.317
rfemur -36.5853 -37.668 20.5413
rtibia 75.2838
rfoot -32.7397 -9.79419
rtoes -1.84657
lfemur -34.572 41.5532 -9.25186
ltibia 73.8281
lfoot -29.0595 1.82722
ltoes -1.90321
67
root 10.6093 13.3914 0.978738 47.2851 -85.5186 -45.0051
lowerback 6.69367 1.36026 0.515631
upperback -5.07161 1.85626 0.197655
thorax -9.11789 0.858869 -0.345244
lowerneck -20.3089 -0.525098 1.64987
upperneck 28.9783 -2.0043 0.682359
head 13.1003 -0.759302 -0.395259
rclavicle 1.86361e-015 4.37326e-015
rhumerus -12.3615 36.9368 -10.2353
rradius 43.9961
rwrist -12.201
rhand -8.23491 15.2355
rfingers 7.12502
rthumb 17.6828 -13.9804
lclavicle 1.86361e-015 4.37326e-015
lhumerus -4.56885 -34.887 -1.75539
lradius 37.3125
lwrist 9.80661
lhand -3.85233 9.39792
lfingers 7.12502
lthumb 21.8958 38.179
rfemur -36.7709 -38.1517 20.4235
rtibia 75.7691
rfoot -32.8599 -9.5439
rtoes -1.97257
lfemur -34.6721 42.0102 -9.17613
ltibia 74.2929
lfoot -29.2586 1.51175
ltoes -1.92468
68
root 10.5935 13.3607 0.991113 47.7189 -85.5414 -45.4592
lowerback 6.69004 1.36098 0.582979
upperback -5.10699 1.86296 0.186674
thorax -9.15185 0.856743 -0.395964
lowerneck -20.3528 -0.395044 1.875
upperneck 28.9099 -1.81635 0.462102
head 13.0771 -0.680732 -0.486689
rclavicle -1.0958e-014 -4.37326e-015
rhumerus -12.4853 37.0254 -10.0544
rradius 44.3173
rwrist -12.5452
rhand -8.31691 15.3229
rfingers 7.12502
rthumb 17.6039 -13.9001
lclavicle -1.0958e-014 -4.37326e-015
lhumerus -4.69167 -35.1814 -1.84946
lradius 37.4606
lwrist 9.74853
lhand -4.08495 9.21322
lfingers 7.12502
lthumb 21.6724 38.0202
rfemur -36.9385 -38.656 20.3141
rtibia 76.2474
rfoot -32.9864 -9.29379
rtoes -2.08067
lfemur -34.7631 42.4691 -9.07427
ltibia 74.7662
lfoot -29.4523 1.24481
ltoes -2.08887
